<?xml version="1.0" standalone="no"?>
<!DOCTYPE svg PUBLIC "-//W3C//DTD SVG 20010904//EN"
 "http://www.w3.org/TR/2001/REC-SVG-20010904/DTD/svg10.dtd">
<svg version="1.0" xmlns="http://www.w3.org/2000/svg"
 width="510.000000pt" height="510.000000pt" viewBox="0 0 510.000000 510.000000"
 preserveAspectRatio="xMidYMid meet">
<metadata>
Created by potrace 1.11, written by Peter Selinger 2001-2013
</metadata>
<g transform="translate(0.000000,510.000000) scale(0.100000,-0.100000)"
fill="#000000" stroke="none">
<path d="M2379 5027 c0 -39 -2 -126 -4 -192 -2 -66 -6 -211 -9 -322 l-5 -203
27 -1 c295 -8 361 -9 365 -2 5 7 12 241 21 696 l2 87 -50 1 c-28 0 -117 2
-198 5 l-148 4 -1 -73z"/>
<path d="M765 4365 l-140 -134 50 -49 c28 -28 109 -112 180 -188 72 -76 173
-182 225 -236 l95 -98 143 137 143 138 -88 91 c-48 50 -164 171 -258 269 -208
219 -195 205 -203 205 -4 -1 -70 -61 -147 -135z"/>
<path d="M4114 4362 c-61 -59 -188 -181 -282 -272 l-172 -165 138 -143 137
-142 91 87 c49 49 177 171 282 272 106 101 191 188 190 192 -4 11 -261 279
-267 279 -4 0 -56 -49 -117 -108z"/>
<path d="M2507 4064 c-1 -1 -41 -4 -89 -8 -108 -7 -255 -39 -367 -78 -91 -32
-243 -104 -291 -138 -15 -11 -31 -20 -34 -20 -3 0 -14 -6 -23 -14 -10 -8 -45
-35 -78 -60 -74 -55 -187 -164 -240 -231 -22 -27 -42 -52 -45 -55 -19 -17
-105 -159 -143 -235 -104 -209 -161 -449 -160 -675 0 -72 11 -216 19 -241 3
-10 6 -30 8 -45 6 -47 36 -152 65 -233 236 -644 881 -1052 1560 -987 394 38
735 213 1006 517 108 121 221 313 279 477 152 426 108 886 -123 1287 -24 41
-78 120 -96 141 -5 6 -26 31 -45 55 -202 250 -538 450 -865 515 -78 15 -328
36 -338 28z"/>
<path d="M9 2736 c0 -22 -2 -112 -4 -198 l-4 -158 27 0 c15 -1 113 -3 217 -5
105 -3 269 -7 367 -9 l176 -5 4 45 c1 24 3 113 3 196 l0 153 -25 2 c-14 0
-158 4 -320 8 -162 4 -328 8 -367 10 l-73 2 -1 -41z"/>
<path d="M4309 2732 c0 -4 -2 -94 -5 -200 l-6 -192 29 1 c15 1 150 -2 298 -6
149 -4 314 -8 368 -10 l97 -2 1 56 c0 31 2 120 4 199 l4 142 -62 1 c-34 0
-127 2 -207 4 -80 3 -229 6 -332 9 -104 3 -188 2 -189 -2z"/>
<path d="M3796 1318 l-136 -143 98 -95 c210 -204 455 -435 467 -442 8 -5 56
38 141 128 71 75 130 139 132 143 2 7 -78 89 -188 191 -25 23 -86 81 -135 128
-50 48 -124 120 -166 160 l-76 72 -137 -142z"/>
<path d="M1029 1289 c-79 -83 -166 -174 -193 -202 -26 -29 -84 -89 -129 -135
l-81 -83 139 -134 c77 -74 143 -134 148 -135 4 0 15 8 25 18 9 10 87 92 173
183 86 90 200 209 253 264 l96 100 -103 99 c-56 54 -120 116 -143 138 l-40 39
-145 -152z"/>
<path d="M2365 789 c-4 -5 -1 -158 10 -529 2 -91 5 -186 5 -212 l0 -48 168 5
c92 2 181 4 199 5 l31 0 -3 97 c-6 156 -18 646 -16 671 l1 23 -196 -3 c-108
-2 -197 -5 -199 -9z"/>
</g>
</svg>
